<svg width="97" height="96" viewBox="0 0 97 96" fill="none" xmlns="http://www.w3.org/2000/svg">
<rect x="0.333496" width="96" height="96" rx="24" fill="#D5FAFF"/>
<g clip-path="url(#clip0_402_9009)">
<path d="M55.0062 24.7526L67.5926 31.989C67.5383 32.1383 67.4867 32.2903 67.446 32.445C67.1773 33.4493 67.2343 34.4862 67.5953 35.4389L64.6638 37.1245C64.273 37.3498 64.1399 37.8465 64.3652 38.2374C64.5145 38.4979 64.7887 38.6445 65.071 38.6445C65.2094 38.6445 65.3478 38.6092 65.4754 38.5359L68.4096 36.8476C69.1832 37.7841 70.2608 38.3812 71.4143 38.5739V53.0983C71.4143 53.5489 71.7781 53.9126 72.2286 53.9126C72.6792 53.9126 73.0429 53.5489 73.0429 53.0983V38.5766C73.6102 38.4816 74.1721 38.2889 74.6987 37.9876C75.8441 37.3281 76.6639 36.264 77.0059 34.9883C77.3452 33.718 77.1714 32.388 76.5091 31.2507C75.1465 28.8974 72.1146 28.0885 69.7532 29.4457C69.232 29.7442 68.7842 30.1324 68.4123 30.5802L55.8178 23.3411C55.4297 23.1158 54.9302 23.2516 54.7049 23.6424C54.4797 24.0333 54.6154 24.53 55.0062 24.7553V24.7526Z" fill="#00BCD5"/>
<path d="M55.0062 24.7526L67.5926 31.989C67.5383 32.1383 67.4867 32.2903 67.446 32.445C67.1773 33.4493 67.2343 34.4862 67.5953 35.4389L64.6638 37.1245C64.273 37.3498 64.1399 37.8465 64.3652 38.2374C64.5145 38.4979 64.7887 38.6445 65.071 38.6445C65.2094 38.6445 65.3478 38.6092 65.4754 38.5359L68.4096 36.8476C69.1832 37.7841 70.2608 38.3812 71.4143 38.5739V53.0983C71.4143 53.5489 71.7781 53.9126 72.2286 53.9126C72.6792 53.9126 73.0429 53.5489 73.0429 53.0983V38.5766C73.6102 38.4816 74.1721 38.2889 74.6987 37.9876C75.8441 37.3281 76.6639 36.264 77.0059 34.9883C77.3452 33.718 77.1714 32.388 76.5091 31.2507C75.1465 28.8974 72.1146 28.0885 69.7532 29.4457C69.232 29.7442 68.7842 30.1324 68.4123 30.5802L55.8178 23.3411C55.4297 23.1158 54.9302 23.2516 54.7049 23.6424C54.4797 24.0333 54.6154 24.53 55.0062 24.7553V24.7526Z" fill="#00BCD5"/>
<path d="M74.696 57.0151C72.3345 55.6579 69.3053 56.4668 67.94 58.8201C67.2804 59.9601 67.104 61.2874 67.4433 62.5577C67.484 62.7124 67.5329 62.8617 67.5871 63.0083L52.0639 71.9357C51.3202 71.0373 50.2616 70.4103 49.0619 70.2121V63.3395C49.0619 62.8889 48.6981 62.5252 48.2476 62.5252C47.797 62.5252 47.4333 62.8889 47.4333 63.3395V70.2121C46.2335 70.413 45.1777 71.0373 44.4339 71.9357L31.6712 64.5962C31.283 64.3709 30.7836 64.5066 30.5583 64.8948C30.333 65.2856 30.4687 65.7824 30.8596 66.0076L43.6223 73.3472C43.4215 73.8846 43.3048 74.4628 43.3048 75.0708C43.3048 77.7905 45.5224 80 48.2503 80C50.9782 80 53.1958 77.7878 53.1958 75.0708C53.1958 74.4628 53.0791 73.8846 52.8782 73.3472L68.4042 64.417C68.776 64.8676 69.2266 65.2558 69.7477 65.5543C70.524 66.0022 71.3736 66.2139 72.2124 66.2139C73.9224 66.2139 75.589 65.3291 76.5037 63.752C77.1633 62.612 77.3397 61.2847 77.0004 60.0144C76.6584 58.7414 75.8387 57.6747 74.6932 57.0151H74.696Z" fill="#00BCD5"/>
<path d="M74.696 57.0151C72.3345 55.6579 69.3053 56.4668 67.94 58.8201C67.2804 59.9601 67.104 61.2874 67.4433 62.5577C67.484 62.7124 67.5329 62.8617 67.5871 63.0083L52.0639 71.9357C51.3202 71.0373 50.2616 70.4103 49.0619 70.2121V63.3395C49.0619 62.8889 48.6981 62.5252 48.2476 62.5252C47.797 62.5252 47.4333 62.8889 47.4333 63.3395V70.2121C46.2335 70.413 45.1777 71.0373 44.4339 71.9357L31.6712 64.5962C31.283 64.3709 30.7836 64.5066 30.5583 64.8948C30.333 65.2856 30.4687 65.7824 30.8596 66.0076L43.6223 73.3472C43.4215 73.8846 43.3048 74.4628 43.3048 75.0708C43.3048 77.7905 45.5224 80 48.2503 80C50.9782 80 53.1958 77.7878 53.1958 75.0708C53.1958 74.4628 53.0791 73.8846 52.8782 73.3472L68.4042 64.417C68.776 64.8676 69.2266 65.2558 69.7477 65.5543C70.524 66.0022 71.3736 66.2139 72.2124 66.2139C73.9224 66.2139 75.589 65.3291 76.5037 63.752C77.1633 62.612 77.3397 61.2847 77.0004 60.0144C76.6584 58.7414 75.8387 57.6747 74.6932 57.0151H74.696Z" fill="#00BCD5"/>
<path d="M25.0969 56.4261V38.5739C26.2478 38.3812 27.3254 37.7868 28.099 36.8503L33.9185 40.1971C34.0461 40.2704 34.1872 40.3057 34.3229 40.3057C34.6052 40.3057 34.8794 40.1591 35.0286 39.8985C35.2539 39.5077 35.1182 39.0109 34.7301 38.7857L28.9133 35.4389C29.2716 34.4862 29.3313 33.4466 29.0626 32.4423C29.0218 32.2876 28.973 32.1355 28.916 31.989L44.4365 23.0616C45.3458 24.1581 46.7193 24.8584 48.2528 24.8584C50.9807 24.8584 53.1984 22.6463 53.1984 19.9292C53.1984 17.2122 50.9807 15 48.2528 15C45.5249 15 43.3073 17.2122 43.3073 19.9292C43.3073 20.5345 43.4241 21.1154 43.6249 21.6528L28.099 30.583C27.7271 30.1324 27.2765 29.7469 26.7554 29.4457C24.3939 28.0885 21.3647 28.8974 19.9994 31.2507C19.3398 32.3907 19.1634 33.718 19.5027 34.9883C19.8447 36.264 20.6644 37.3281 21.8099 37.9876C22.3364 38.2916 22.8983 38.4844 23.4656 38.5766V56.4288C22.8983 56.5238 22.3364 56.7111 21.8099 57.0151C20.6644 57.6747 19.8447 58.7387 19.5027 60.0144C19.1634 61.2847 19.3371 62.612 19.9994 63.752C20.9141 65.3318 22.5807 66.2139 24.2908 66.2139C25.1295 66.2139 25.9764 66.0022 26.7527 65.5544C27.8981 64.8948 28.7178 63.8308 29.0598 62.555C29.3991 61.2847 29.2254 59.9574 28.5631 58.8174C27.795 57.4928 26.5002 56.6595 25.0942 56.4234L25.0969 56.4261Z" fill="#00BCD5"/>
<path d="M25.0969 56.4261V38.5739C26.2478 38.3812 27.3254 37.7868 28.099 36.8503L33.9185 40.1971C34.0461 40.2704 34.1872 40.3057 34.3229 40.3057C34.6052 40.3057 34.8794 40.1591 35.0286 39.8985C35.2539 39.5077 35.1182 39.0109 34.7301 38.7857L28.9133 35.4389C29.2716 34.4862 29.3313 33.4466 29.0626 32.4423C29.0218 32.2876 28.973 32.1355 28.916 31.989L44.4365 23.0616C45.3458 24.1581 46.7193 24.8584 48.2528 24.8584C50.9807 24.8584 53.1984 22.6463 53.1984 19.9292C53.1984 17.2122 50.9807 15 48.2528 15C45.5249 15 43.3073 17.2122 43.3073 19.9292C43.3073 20.5345 43.4241 21.1154 43.6249 21.6528L28.099 30.583C27.7271 30.1324 27.2765 29.7469 26.7554 29.4457C24.3939 28.0885 21.3647 28.8974 19.9994 31.2507C19.3398 32.3907 19.1634 33.718 19.5027 34.9883C19.8447 36.264 20.6644 37.3281 21.8099 37.9876C22.3364 38.2916 22.8983 38.4844 23.4656 38.5766V56.4288C22.8983 56.5238 22.3364 56.7111 21.8099 57.0151C20.6644 57.6747 19.8447 58.7387 19.5027 60.0144C19.1634 61.2847 19.3371 62.612 19.9994 63.752C20.9141 65.3318 22.5807 66.2139 24.2908 66.2139C25.1295 66.2139 25.9764 66.0022 26.7527 65.5544C27.8981 64.8948 28.7178 63.8308 29.0598 62.555C29.3991 61.2847 29.2254 59.9574 28.5631 58.8174C27.795 57.4928 26.5002 56.6595 25.0942 56.4234L25.0969 56.4261Z" fill="#00BCD5"/>
<path d="M58.0941 34.9802C56.4384 34.9802 55.0921 36.3238 55.0921 37.9714V57.026C55.0921 58.6763 56.4384 60.0172 58.0941 60.0172H58.1403C59.796 60.0172 61.1423 58.6736 61.1423 57.026V37.9714C61.1423 36.3211 59.796 34.9802 58.1403 34.9802H58.0941ZM59.511 37.9741V57.0287C59.511 57.7806 58.8949 58.3913 58.1376 58.3913H58.0914C57.3341 58.3913 56.718 57.7806 56.718 57.0287V37.9741C56.718 37.2223 57.3341 36.6115 58.0914 36.6115H58.1376C58.8949 36.6115 59.511 37.2223 59.511 37.9741Z" fill="#00BCD5"/>
<path d="M58.0941 34.9802C56.4384 34.9802 55.0921 36.3238 55.0921 37.9714V57.026C55.0921 58.6763 56.4384 60.0172 58.0941 60.0172H58.1403C59.796 60.0172 61.1423 58.6736 61.1423 57.026V37.9714C61.1423 36.3211 59.796 34.9802 58.1403 34.9802H58.0941ZM59.511 37.9741V57.0287C59.511 57.7806 58.8949 58.3913 58.1376 58.3913H58.0914C57.3341 58.3913 56.718 57.7806 56.718 57.0287V37.9741C56.718 37.2223 57.3341 36.6115 58.0914 36.6115H58.1376C58.8949 36.6115 59.511 37.2223 59.511 37.9741Z" fill="#00BCD5"/>
<path d="M49.8344 58.3913C49.2237 58.3913 48.6971 58.0031 48.5207 57.4223L47.9561 55.563C47.8258 55.1341 47.3698 54.8898 46.941 55.0201C46.5121 55.1504 46.2678 55.6064 46.3981 56.0353L46.9627 57.8946C47.3481 59.1649 48.5044 60.0172 49.8344 60.0172C50.8035 60.0172 51.6856 59.5693 52.2583 58.7903C52.8283 58.014 52.9858 57.0423 52.6953 56.1248L46.8487 37.6701C46.3384 36.0632 44.8618 34.9829 43.1708 34.9829C41.4797 34.9829 40.0004 36.0632 39.4901 37.6728L33.6462 56.1275C33.3558 57.045 33.5159 58.0167 34.0859 58.793C34.6586 59.572 35.5408 60.0199 36.5098 60.0199C37.8425 60.0199 38.9961 59.1676 39.3816 57.8946L40.4917 54.2411C40.6627 53.6792 41.1757 53.2992 41.7675 53.2992H44.2918C45.0057 53.2992 45.6571 52.9708 46.0778 52.3981C46.4985 51.8281 46.6207 51.1115 46.4117 50.4356L43.9471 42.4582C43.8412 42.1162 43.5263 41.8855 43.1681 41.8855C42.8098 41.8855 42.4949 42.1189 42.389 42.4609L40.6654 48.0986C40.5352 48.5274 40.7767 48.9834 41.2056 49.1164C41.6345 49.2494 42.0905 49.0052 42.2235 48.5763L43.1735 45.4711L44.8564 50.916C44.9107 51.0925 44.8781 51.2825 44.7695 51.4318C44.6582 51.5838 44.4845 51.6706 44.2945 51.6706H41.7702C40.4564 51.6706 39.3164 52.5121 38.9364 53.7661L37.8263 57.4196C37.6498 58.0004 37.1232 58.3886 36.5125 58.3886C36.0674 58.3886 35.6657 58.185 35.4024 57.8267C35.1445 57.4739 35.0712 57.0314 35.2015 56.6161L41.0455 38.1614C41.3386 37.2331 42.1936 36.6088 43.1708 36.6088C44.1479 36.6088 45.0029 37.2331 45.2961 38.1614L51.1427 56.6161C51.2758 57.0341 51.2025 57.4739 50.9446 57.8267C50.684 58.1823 50.2796 58.3886 49.8344 58.3886V58.3913Z" fill="#00BCD5"/>
<path d="M49.8344 58.3913C49.2237 58.3913 48.6971 58.0031 48.5207 57.4223L47.9561 55.563C47.8258 55.1341 47.3698 54.8898 46.941 55.0201C46.5121 55.1504 46.2678 55.6064 46.3981 56.0353L46.9627 57.8946C47.3481 59.1649 48.5044 60.0172 49.8344 60.0172C50.8035 60.0172 51.6856 59.5693 52.2583 58.7903C52.8283 58.014 52.9858 57.0423 52.6953 56.1248L46.8487 37.6701C46.3384 36.0632 44.8618 34.9829 43.1708 34.9829C41.4797 34.9829 40.0004 36.0632 39.4901 37.6728L33.6462 56.1275C33.3558 57.045 33.5159 58.0167 34.0859 58.793C34.6586 59.572 35.5408 60.0199 36.5098 60.0199C37.8425 60.0199 38.9961 59.1676 39.3816 57.8946L40.4917 54.2411C40.6627 53.6792 41.1757 53.2992 41.7675 53.2992H44.2918C45.0057 53.2992 45.6571 52.9708 46.0778 52.3981C46.4985 51.8281 46.6207 51.1115 46.4117 50.4356L43.9471 42.4582C43.8412 42.1162 43.5263 41.8855 43.1681 41.8855C42.8098 41.8855 42.4949 42.1189 42.389 42.4609L40.6654 48.0986C40.5352 48.5274 40.7767 48.9834 41.2056 49.1164C41.6345 49.2494 42.0905 49.0052 42.2235 48.5763L43.1735 45.4711L44.8564 50.916C44.9107 51.0925 44.8781 51.2825 44.7695 51.4318C44.6582 51.5838 44.4845 51.6706 44.2945 51.6706H41.7702C40.4564 51.6706 39.3164 52.5121 38.9364 53.7661L37.8263 57.4196C37.6498 58.0004 37.1232 58.3886 36.5125 58.3886C36.0674 58.3886 35.6657 58.185 35.4024 57.8267C35.1445 57.4739 35.0712 57.0314 35.2015 56.6161L41.0455 38.1614C41.3386 37.2331 42.1936 36.6088 43.1708 36.6088C44.1479 36.6088 45.0029 37.2331 45.2961 38.1614L51.1427 56.6161C51.2758 57.0341 51.2025 57.4739 50.9446 57.8267C50.684 58.1823 50.2796 58.3886 49.8344 58.3886V58.3913Z" fill="#00BCD5"/>
</g>
<defs>
<clipPath id="clip0_402_9009">
<rect width="57.8396" height="65" fill="white" transform="translate(19.3335 15)"/>
</clipPath>
</defs>
</svg>
