<svg width="120" height="100" viewBox="0 0 120 100" fill="none" xmlns="http://www.w3.org/2000/svg">
<path opacity="0.2" d="M55.3044 79.3044C55.3044 90.7826 46.9565 99.1305 35.4783 99.1305H19.8261C8.34782 99.1305 0 89.7392 0 79.3044V51.1304C0 18.7826 7.30435 11.4783 26.087 1.04348C26.087 1.04348 28.1739 0 29.2174 0C32.3478 0 34.4348 1.04348 35.4783 4.17391C37.5652 8.34783 36.5217 12.5217 32.3478 14.6087C19.8261 21.9131 15.6522 25.0435 14.6087 43.8261H34.4348C45.9131 43.8261 54.2609 53.2174 54.2609 63.6522L55.3044 79.3044ZM120 79.3044C120 90.7826 110.609 99.1305 100.174 99.1305H84.5217C73.0435 99.1305 64.6957 89.7392 64.6957 79.3044V51.1304C64.6957 18.7826 72 11.4783 90.7826 1.04348C91.8261 2.68221e-06 93.913 0 94.9565 0C98.087 0 100.174 1.04348 101.217 4.17391C103.304 8.34783 102.261 12.5217 98.087 14.6087C85.5652 21.9131 81.3913 25.0435 80.3478 43.8261H100.174C111.652 43.8261 120 52.1739 120 63.6522V79.3044Z" fill="black" fill-opacity="0.4"/>
</svg>
