<svg width="97" height="96" viewBox="0 0 97 96" fill="none" xmlns="http://www.w3.org/2000/svg">
<rect x="0.666504" width="96" height="96" rx="24" fill="white"/>
<rect x="0.666504" width="96" height="96" rx="24" fill="#E6FCFF"/>
<path d="M56.7223 19.6477C55.492 19.3445 54.155 18.3164 52.9914 17.1458C51.3449 15.4894 48.4581 15.4893 46.8117 17.1458C45.6481 18.3164 44.3111 19.3445 43.0808 19.6477C41.8505 19.9509 40.1889 19.662 38.6145 19.1662C36.3869 18.4646 33.8308 19.8062 33.1427 22.038C32.6564 23.6154 31.9503 25.147 31.0019 25.9872C30.0534 26.8275 28.4479 27.3438 26.8234 27.6364C24.5249 28.0505 22.885 30.4263 23.313 32.7222C23.6154 34.3448 23.7019 36.0292 23.2526 37.2139C22.8033 38.3987 21.6216 39.6021 20.3192 40.6161C18.4764 42.0508 18.1284 44.9166 19.5743 46.7507C20.5962 48.0469 21.4556 49.4981 21.6083 50.756C21.761 52.0138 21.2739 53.6285 20.592 55.1316C19.627 57.2584 20.6507 59.9576 22.7833 60.9097C24.2905 61.5826 25.7259 62.4682 26.4457 63.511C27.1654 64.5538 27.4845 66.2099 27.5792 67.8578C27.7131 70.1894 29.874 72.1037 32.2047 71.9556C33.852 71.851 35.5345 71.9681 36.6565 72.5569C37.7784 73.1458 38.8306 74.4639 39.6802 75.8791C40.8824 77.8813 43.6853 78.5722 45.6803 77.3579C47.0902 76.4998 48.6345 75.8216 49.9015 75.8216C51.1686 75.8216 52.7128 76.4998 54.1228 77.3579C56.1178 78.5722 58.9207 77.8813 60.1229 75.8791C60.9725 74.4639 62.0247 73.1458 63.1466 72.5569C64.2686 71.9681 65.9511 71.851 67.5984 71.9556C69.9291 72.1037 72.0899 70.1894 72.2239 67.8578C72.3186 66.2099 72.6376 64.5538 73.3574 63.511C74.0772 62.4682 75.5126 61.5826 77.0198 60.9097C79.1524 59.9576 80.1761 57.2584 79.2111 55.1316C78.5291 53.6285 78.042 52.0138 78.1947 50.756C78.3475 49.4981 79.2069 48.0469 80.2287 46.7507C81.6746 44.9166 81.3267 42.0508 79.4839 40.6161C78.1815 39.6021 76.9998 38.3987 76.5504 37.2139C76.1011 36.0292 76.1877 34.3448 76.4901 32.7222C76.918 30.4263 75.2781 28.0505 72.9797 27.6364C71.3552 27.3438 69.7496 26.8275 68.8012 25.9872C67.8528 25.147 67.1466 23.6154 66.6604 22.038C65.9723 19.8062 63.4162 18.4646 61.1886 19.1662C59.6142 19.662 57.9525 19.9509 56.7223 19.6477Z" stroke="white" stroke-width="1.8"/>
<path d="M56.7223 19.6477C55.492 19.3445 54.155 18.3164 52.9914 17.1458C51.3449 15.4894 48.4581 15.4893 46.8117 17.1458C45.6481 18.3164 44.3111 19.3445 43.0808 19.6477C41.8505 19.9509 40.1889 19.662 38.6145 19.1662C36.3869 18.4646 33.8308 19.8062 33.1427 22.038C32.6564 23.6154 31.9503 25.147 31.0019 25.9872C30.0534 26.8275 28.4479 27.3438 26.8234 27.6364C24.5249 28.0505 22.885 30.4263 23.313 32.7222C23.6154 34.3448 23.7019 36.0292 23.2526 37.2139C22.8033 38.3987 21.6216 39.6021 20.3192 40.6161C18.4764 42.0508 18.1284 44.9166 19.5743 46.7507C20.5962 48.0469 21.4556 49.4981 21.6083 50.756C21.761 52.0138 21.2739 53.6285 20.592 55.1316C19.627 57.2584 20.6507 59.9576 22.7833 60.9097C24.2905 61.5826 25.7259 62.4682 26.4457 63.511C27.1654 64.5538 27.4845 66.2099 27.5792 67.8578C27.7131 70.1894 29.874 72.1037 32.2047 71.9556C33.852 71.851 35.5345 71.9681 36.6565 72.5569C37.7784 73.1458 38.8306 74.4639 39.6802 75.8791C40.8824 77.8813 43.6853 78.5722 45.6803 77.3579C47.0902 76.4998 48.6345 75.8216 49.9015 75.8216C51.1686 75.8216 52.7128 76.4998 54.1228 77.3579C56.1178 78.5722 58.9207 77.8813 60.1229 75.8791C60.9725 74.4639 62.0247 73.1458 63.1466 72.5569C64.2686 71.9681 65.9511 71.851 67.5984 71.9556C69.9291 72.1037 72.0899 70.1894 72.2239 67.8578C72.3186 66.2099 72.6376 64.5538 73.3574 63.511C74.0772 62.4682 75.5126 61.5826 77.0198 60.9097C79.1524 59.9576 80.1761 57.2584 79.2111 55.1316C78.5291 53.6285 78.042 52.0138 78.1947 50.756C78.3475 49.4981 79.2069 48.0469 80.2287 46.7507C81.6746 44.9166 81.3267 42.0508 79.4839 40.6161C78.1815 39.6021 76.9998 38.3987 76.5504 37.2139C76.1011 36.0292 76.1877 34.3448 76.4901 32.7222C76.918 30.4263 75.2781 28.0505 72.9797 27.6364C71.3552 27.3438 69.7496 26.8275 68.8012 25.9872C67.8528 25.147 67.1466 23.6154 66.6604 22.038C65.9723 19.8062 63.4162 18.4646 61.1886 19.1662C59.6142 19.662 57.9525 19.9509 56.7223 19.6477Z" stroke="#00BCD5" stroke-width="1.8"/>
<path d="M49.9813 72.8148C36.0225 72.8148 24.6665 61.4587 24.6665 47.5C24.6665 33.5412 36.0225 22.1852 49.9813 22.1852C54.9809 22.1852 59.818 23.6423 63.9671 26.3966C64.4357 26.7081 64.563 27.3391 64.2515 27.8077C63.94 28.2762 63.309 28.4035 62.8405 28.0921C59.0271 25.5598 54.58 24.2218 49.9813 24.2218C37.1438 24.2218 26.7005 34.6652 26.7005 47.5027C26.7005 60.3402 37.1438 70.7835 49.9813 70.7835C62.8188 70.7835 73.2621 60.3402 73.2621 47.5027C73.2621 44.4206 72.669 41.4279 71.5017 38.6058C71.2878 38.0858 71.5342 37.4927 72.0515 37.276C72.5715 37.0621 73.1646 37.3085 73.3813 37.8258C74.6515 40.8971 75.2961 44.1525 75.2961 47.5027C75.2961 61.4614 63.94 72.8175 49.9813 72.8175V72.8148Z" fill="#00BCD5"/>
<path d="M63.9169 32.25L45.6669 50.5L39.4169 44.25C38.1743 43.0074 36.1595 43.0074 34.9169 44.25C33.6743 45.4927 33.6743 47.5074 34.9169 48.75L43.3942 57.2273C44.6494 58.4825 46.6844 58.4825 47.9396 57.2273L68.4169 36.75C69.6595 35.5074 69.6595 33.4927 68.4169 32.25C67.1743 31.0074 65.1595 31.0074 63.9169 32.25Z" fill="white"/>
<path d="M63.9169 32.25L45.6669 50.5L39.4169 44.25C38.1743 43.0074 36.1595 43.0074 34.9169 44.25C33.6743 45.4927 33.6743 47.5074 34.9169 48.75L43.3942 57.2273C44.6494 58.4825 46.6844 58.4825 47.9396 57.2273L68.4169 36.75C69.6595 35.5074 69.6595 33.4927 68.4169 32.25C67.1743 31.0074 65.1595 31.0074 63.9169 32.25Z" fill="#00BCD5"/>
</svg>
