<?xml version="1.0" encoding="UTF-8"?>
<svg id="Layer_1" xmlns="http://www.w3.org/2000/svg" version="1.1" viewBox="0 0 800 680">
  <!-- Generator: Adobe Illustrator 29.5.1, SVG Export Plug-In . SVG Version: 2.1.0 Build 141)  -->
  <defs>
    <style>
      .st0 {
        fill: #ff4d5e;
      }
    </style>
  </defs>
  <path class="st0" d="M400.1,679c-28.6-22.4-56.9-44.1-84.6-66.1-73.4-58.6-145.8-118.5-210.8-185.8-26.5-27.4-52.6-56.3-72.9-88C-3.2,284.2-6.8,223.2,10.8,162.1,31.9,88.8,78.5,35.8,154.7,10.9c81.9-26.9,172.4,2.5,227.1,72.2,6.3,8.1,11.9,16.5,18.7,26.2,2.9-4.1,5.2-7.9,7.7-11.5,33.5-49.3,79-82.4,139.7-93,71.5-12.7,132.6,8.6,183.2,57.3,68.4,66,88.2,176.7,47,261.1-16.2,33.3-41.2,60.8-66.6,87.6-74.3,78.3-157.7,147.1-242.4,214.5-22.3,17.7-45.2,34.9-68.9,53.4v.2Z"/>
</svg>