<svg width="24" height="25" viewBox="0 0 24 25" fill="none" xmlns="http://www.w3.org/2000/svg">
<rect x="0.5" y="1.39551" width="23" height="23" rx="11.5" fill="#F9F9FB"/>
<rect x="0.5" y="1.39551" width="23" height="23" rx="11.5" stroke="#212126"/>
<mask id="mask0_586_458" style="mask-type:alpha" maskUnits="userSpaceOnUse" x="5" y="5" width="14" height="15">
<rect x="5" y="5.89551" width="14" height="14" fill="#D9D9D9"/>
</mask>
<g mask="url(#mask0_586_458)">
<path d="M8.33965 13.8146C8.08687 13.8146 7.87055 13.7246 7.69069 13.5448C7.51083 13.3649 7.4209 13.1486 7.4209 12.8958C7.4209 12.643 7.51083 12.4267 7.69069 12.2468C7.87055 12.067 8.08687 11.9771 8.33965 11.9771H15.6605C15.9133 11.9771 16.1296 12.067 16.3094 12.2468C16.4893 12.4267 16.5792 12.643 16.5792 12.8958C16.5792 13.1486 16.4893 13.3649 16.3094 13.5448C16.1296 13.7246 15.9133 13.8146 15.6605 13.8146H8.33965Z" fill="#1C1B1F"/>
</g>
</svg>
