<svg width="96" height="96" viewBox="0 0 96 96" fill="none" xmlns="http://www.w3.org/2000/svg">
<rect width="96" height="96" rx="24" fill="#E6FCFF"/>
<path d="M72.1591 56.0873C71.2058 56.0873 70.2904 56.3798 69.5131 56.9323L62.5689 61.7937C62.3766 61.9319 62.2466 62.135 62.2087 62.3706C62.1681 62.6062 62.2223 62.8419 62.3604 63.0369C62.5283 63.2725 62.7991 63.4133 63.0889 63.4133C63.2758 63.4133 63.4518 63.3565 63.6035 63.2481L70.5477 58.3867C71.0216 58.0508 71.5795 57.8721 72.1618 57.8721C73.0691 57.8721 73.9223 58.3135 74.4477 59.0502C74.881 59.6596 75.0489 60.399 74.9243 61.1383C74.7998 61.875 74.3962 62.5196 73.7868 62.9529L55.1616 76.11C54.9423 76.2644 54.7066 76.3862 54.4548 76.4729C54.165 76.5731 53.8589 76.6246 53.5475 76.6246C53.4527 76.6246 53.3606 76.6192 53.2712 76.611L53.236 76.6056L53.2198 76.6002L35.9054 72.1937C35.862 72.1829 35.8295 72.1748 35.797 72.1694C35.5668 72.1342 35.3285 72.1152 35.0956 72.1152C34.145 72.1152 33.2295 72.4077 32.4495 72.9629L31.1848 73.8621L23.9102 63.6165L31.9593 57.8694C32.9181 57.1896 34.0393 56.8294 35.2066 56.8294C35.4937 56.8294 35.7862 56.851 36.0706 56.8944L36.1166 56.9052L55.8712 62.6387L55.8929 62.6442C57.3473 63.064 58.2139 64.5779 57.8266 66.0215C57.637 66.7283 57.1793 67.316 56.5348 67.6817C56.1123 67.92 55.6329 68.0473 55.1508 68.0473C54.9043 68.0473 54.6552 68.0148 54.4141 67.9498H54.4087C54.4087 67.9498 54.3952 67.9471 54.3898 67.9444C54.3843 67.9444 54.3789 67.9444 54.3735 67.939L44.1793 65.4635C44.1143 65.4473 44.0466 65.4419 43.9789 65.4419C43.5618 65.4419 43.2043 65.7262 43.1095 66.1325C43.05 66.3817 43.1041 66.6444 43.2504 66.8529C43.3777 67.0317 43.5618 67.1562 43.7731 67.205L53.9618 69.6804C53.9618 69.6804 53.9754 69.6831 53.9808 69.6858C54.3654 69.786 54.7581 69.8348 55.1508 69.8348C55.9389 69.8348 56.7189 69.629 57.4095 69.2362C58.4712 68.635 59.2295 67.6573 59.5437 66.4846C60.1829 64.1067 58.7583 61.6123 56.3695 60.9271L36.615 55.1935H36.6041C36.55 55.1692 36.4985 55.1556 36.4498 55.1475C36.0354 55.0771 35.6129 55.0419 35.1958 55.0419C33.6602 55.0419 32.1814 55.5158 30.9166 56.415L22.8702 62.1621L21.9737 60.9C21.8329 60.6996 21.6243 60.5479 21.3833 60.5046C21.1423 60.4612 20.8985 60.5154 20.7035 60.6535L17.3993 62.9908C17.3993 62.9908 17.3885 62.999 17.3831 63.0017L17.3614 63.0179C16.9904 63.2915 16.8631 63.844 17.18 64.2854C17.2883 64.4371 17.4508 64.5508 17.6323 64.5996C17.9329 64.6835 18.2308 64.6212 18.4556 64.4425L18.4691 64.4317L21.0068 62.6252L31.1739 76.9442L28.8258 78.6179C28.7689 78.6504 28.7148 78.6883 28.666 78.7344C28.4764 78.905 28.3681 79.1487 28.3681 79.4033C28.3681 79.899 28.7716 80.3025 29.2673 80.3025C29.4568 80.3025 29.6383 80.2429 29.7927 80.1319L32.937 77.8867C33.3379 77.6023 33.4354 77.0417 33.1483 76.6408L32.2112 75.3192L33.476 74.42C33.95 74.0815 34.5079 73.9054 35.0875 73.9054C35.212 73.9054 35.3393 73.9135 35.4639 73.9298L35.5045 73.9379L52.8568 78.3552H52.8704C52.8704 78.3552 52.892 78.3633 52.9002 78.3633L52.9245 78.3687C52.9245 78.3687 52.9381 78.3715 52.9462 78.3715L52.9733 78.3769C53.1575 78.3985 53.3443 78.4094 53.5285 78.4094C54.0431 78.4094 54.5468 78.3254 55.0262 78.1602C55.4379 78.0194 55.8279 77.8162 56.1827 77.5644L74.8079 64.4073C75.8045 63.7004 76.4654 62.6442 76.6712 61.4362C76.877 60.2283 76.5981 59.0123 75.8912 58.0156C75.0327 56.8077 73.6352 56.0873 72.1456 56.0873H72.1591Z" fill="white"/>
<path d="M72.1591 56.0873C71.2058 56.0873 70.2904 56.3798 69.5131 56.9323L62.5689 61.7937C62.3766 61.9319 62.2466 62.135 62.2087 62.3706C62.1681 62.6062 62.2223 62.8419 62.3604 63.0369C62.5283 63.2725 62.7991 63.4133 63.0889 63.4133C63.2758 63.4133 63.4518 63.3565 63.6035 63.2481L70.5477 58.3867C71.0216 58.0508 71.5795 57.8721 72.1618 57.8721C73.0691 57.8721 73.9223 58.3135 74.4477 59.0502C74.881 59.6596 75.0489 60.399 74.9243 61.1383C74.7998 61.875 74.3962 62.5196 73.7868 62.9529L55.1616 76.11C54.9423 76.2644 54.7066 76.3862 54.4548 76.4729C54.165 76.5731 53.8589 76.6246 53.5475 76.6246C53.4527 76.6246 53.3606 76.6192 53.2712 76.611L53.236 76.6056L53.2198 76.6002L35.9054 72.1937C35.862 72.1829 35.8295 72.1748 35.797 72.1694C35.5668 72.1342 35.3285 72.1152 35.0956 72.1152C34.145 72.1152 33.2295 72.4077 32.4495 72.9629L31.1848 73.8621L23.9102 63.6165L31.9593 57.8694C32.9181 57.1896 34.0393 56.8294 35.2066 56.8294C35.4937 56.8294 35.7862 56.851 36.0706 56.8944L36.1166 56.9052L55.8712 62.6387L55.8929 62.6442C57.3473 63.064 58.2139 64.5779 57.8266 66.0215C57.637 66.7283 57.1793 67.316 56.5348 67.6817C56.1123 67.92 55.6329 68.0473 55.1508 68.0473C54.9043 68.0473 54.6552 68.0148 54.4141 67.9498H54.4087C54.4087 67.9498 54.3952 67.9471 54.3898 67.9444C54.3843 67.9444 54.3789 67.9444 54.3735 67.939L44.1793 65.4635C44.1143 65.4473 44.0466 65.4419 43.9789 65.4419C43.5618 65.4419 43.2043 65.7262 43.1095 66.1325C43.05 66.3817 43.1041 66.6444 43.2504 66.8529C43.3777 67.0317 43.5618 67.1562 43.7731 67.205L53.9618 69.6804C53.9618 69.6804 53.9754 69.6831 53.9808 69.6858C54.3654 69.786 54.7581 69.8348 55.1508 69.8348C55.9389 69.8348 56.7189 69.629 57.4095 69.2362C58.4712 68.635 59.2295 67.6573 59.5437 66.4846C60.1829 64.1067 58.7583 61.6123 56.3695 60.9271L36.615 55.1935H36.6041C36.55 55.1692 36.4985 55.1556 36.4498 55.1475C36.0354 55.0771 35.6129 55.0419 35.1958 55.0419C33.6602 55.0419 32.1814 55.5158 30.9166 56.415L22.8702 62.1621L21.9737 60.9C21.8329 60.6996 21.6243 60.5479 21.3833 60.5046C21.1423 60.4612 20.8985 60.5154 20.7035 60.6535L17.3993 62.9908C17.3993 62.9908 17.3885 62.999 17.3831 63.0017L17.3614 63.0179C16.9904 63.2915 16.8631 63.844 17.18 64.2854C17.2883 64.4371 17.4508 64.5508 17.6323 64.5996C17.9329 64.6835 18.2308 64.6212 18.4556 64.4425L18.4691 64.4317L21.0068 62.6252L31.1739 76.9442L28.8258 78.6179C28.7689 78.6504 28.7148 78.6883 28.666 78.7344C28.4764 78.905 28.3681 79.1487 28.3681 79.4033C28.3681 79.899 28.7716 80.3025 29.2673 80.3025C29.4568 80.3025 29.6383 80.2429 29.7927 80.1319L32.937 77.8867C33.3379 77.6023 33.4354 77.0417 33.1483 76.6408L32.2112 75.3192L33.476 74.42C33.95 74.0815 34.5079 73.9054 35.0875 73.9054C35.212 73.9054 35.3393 73.9135 35.4639 73.9298L35.5045 73.9379L52.8568 78.3552H52.8704C52.8704 78.3552 52.892 78.3633 52.9002 78.3633L52.9245 78.3687C52.9245 78.3687 52.9381 78.3715 52.9462 78.3715L52.9733 78.3769C53.1575 78.3985 53.3443 78.4094 53.5285 78.4094C54.0431 78.4094 54.5468 78.3254 55.0262 78.1602C55.4379 78.0194 55.8279 77.8162 56.1827 77.5644L74.8079 64.4073C75.8045 63.7004 76.4654 62.6442 76.6712 61.4362C76.877 60.2283 76.5981 59.0123 75.8912 58.0156C75.0327 56.8077 73.6352 56.0873 72.1456 56.0873H72.1591Z" fill="#00BCD5"/>
<path d="M72.1591 56.0873C71.2058 56.0873 70.2904 56.3798 69.5131 56.9323L62.5689 61.7937C62.3766 61.9319 62.2466 62.135 62.2087 62.3706C62.1681 62.6062 62.2223 62.8419 62.3604 63.0369C62.5283 63.2725 62.7991 63.4133 63.0889 63.4133C63.2758 63.4133 63.4518 63.3565 63.6035 63.2481L70.5477 58.3867C71.0216 58.0508 71.5795 57.8721 72.1618 57.8721C73.0691 57.8721 73.9223 58.3135 74.4477 59.0502C74.881 59.6596 75.0489 60.399 74.9243 61.1383C74.7998 61.875 74.3962 62.5196 73.7868 62.9529L55.1616 76.11C54.9423 76.2644 54.7066 76.3862 54.4548 76.4729C54.165 76.5731 53.8589 76.6246 53.5475 76.6246C53.4527 76.6246 53.3606 76.6192 53.2712 76.611L53.236 76.6056L53.2198 76.6002L35.9054 72.1937C35.862 72.1829 35.8295 72.1748 35.797 72.1694C35.5668 72.1342 35.3285 72.1152 35.0956 72.1152C34.145 72.1152 33.2295 72.4077 32.4495 72.9629L31.1848 73.8621L23.9102 63.6165L31.9593 57.8694C32.9181 57.1896 34.0393 56.8294 35.2066 56.8294C35.4937 56.8294 35.7862 56.851 36.0706 56.8944L36.1166 56.9052L55.8712 62.6387L55.8929 62.6442C57.3473 63.064 58.2139 64.5779 57.8266 66.0215C57.637 66.7283 57.1793 67.316 56.5348 67.6817C56.1123 67.92 55.6329 68.0473 55.1508 68.0473C54.9043 68.0473 54.6552 68.0148 54.4141 67.9498H54.4087C54.4087 67.9498 54.3952 67.9471 54.3898 67.9444C54.3843 67.9444 54.3789 67.9444 54.3735 67.939L44.1793 65.4635C44.1143 65.4473 44.0466 65.4419 43.9789 65.4419C43.5618 65.4419 43.2043 65.7262 43.1095 66.1325C43.05 66.3817 43.1041 66.6444 43.2504 66.8529C43.3777 67.0317 43.5618 67.1562 43.7731 67.205L53.9618 69.6804C53.9618 69.6804 53.9754 69.6831 53.9808 69.6858C54.3654 69.786 54.7581 69.8348 55.1508 69.8348C55.9389 69.8348 56.7189 69.629 57.4095 69.2362C58.4712 68.635 59.2295 67.6573 59.5437 66.4846C60.1829 64.1067 58.7583 61.6123 56.3695 60.9271L36.615 55.1935H36.6041C36.55 55.1692 36.4985 55.1556 36.4498 55.1475C36.0354 55.0771 35.6129 55.0419 35.1958 55.0419C33.6602 55.0419 32.1814 55.5158 30.9166 56.415L22.8702 62.1621L21.9737 60.9C21.8329 60.6996 21.6243 60.5479 21.3833 60.5046C21.1423 60.4612 20.8985 60.5154 20.7035 60.6535L17.3993 62.9908C17.3993 62.9908 17.3885 62.999 17.3831 63.0017L17.3614 63.0179C16.9904 63.2915 16.8631 63.844 17.18 64.2854C17.2883 64.4371 17.4508 64.5508 17.6323 64.5996C17.9329 64.6835 18.2308 64.6212 18.4556 64.4425L18.4691 64.4317L21.0068 62.6252L31.1739 76.9442L28.8258 78.6179C28.7689 78.6504 28.7148 78.6883 28.666 78.7344C28.4764 78.905 28.3681 79.1487 28.3681 79.4033C28.3681 79.899 28.7716 80.3025 29.2673 80.3025C29.4568 80.3025 29.6383 80.2429 29.7927 80.1319L32.937 77.8867C33.3379 77.6023 33.4354 77.0417 33.1483 76.6408L32.2112 75.3192L33.476 74.42C33.95 74.0815 34.5079 73.9054 35.0875 73.9054C35.212 73.9054 35.3393 73.9135 35.4639 73.9298L35.5045 73.9379L52.8568 78.3552H52.8704C52.8704 78.3552 52.892 78.3633 52.9002 78.3633L52.9245 78.3687C52.9245 78.3687 52.9381 78.3715 52.9462 78.3715L52.9733 78.3769C53.1575 78.3985 53.3443 78.4094 53.5285 78.4094C54.0431 78.4094 54.5468 78.3254 55.0262 78.1602C55.4379 78.0194 55.8279 77.8162 56.1827 77.5644L74.8079 64.4073C75.8045 63.7004 76.4654 62.6442 76.6712 61.4362C76.877 60.2283 76.5981 59.0123 75.8912 58.0156C75.0327 56.8077 73.6352 56.0873 72.1456 56.0873H72.1591Z" stroke="#00BCD5" stroke-width="0.2"/>
<path d="M56.4061 51.2998C64.4698 51.2998 71.0068 44.8079 71.0068 36.7998C71.0068 28.7917 64.4698 22.2998 56.4061 22.2998C48.3591 22.2998 42.0331 28.7647 42.0068 36.7498H48.5068L43.863 43.9687C46.3161 48.3474 50.9681 51.2998 56.4061 51.2998Z" fill="white"/>
<path d="M56.4061 51.2998C64.4698 51.2998 71.0068 44.8079 71.0068 36.7998C71.0068 28.7917 64.4698 22.2998 56.4061 22.2998C48.3591 22.2998 42.0331 28.7647 42.0068 36.7498H48.5068L43.863 43.9687C46.3161 48.3474 50.9681 51.2998 56.4061 51.2998Z" fill="#00BCD5"/>
<path d="M52.8074 29.7002H61.1192V29.7219C60.8024 30.2744 60.5749 30.6617 60.434 30.8838C60.3501 31.0192 60.2011 31.0977 60.044 31.0977H58.8659C58.5355 31.0977 58.308 31.4363 58.4407 31.7396C58.5084 31.8967 58.568 32.0619 58.614 32.2379C58.6682 32.4384 58.8496 32.5765 59.0582 32.5765H61.0569C61.084 32.5846 61.0976 32.5982 61.0976 32.6171C60.778 33.1561 60.5532 33.5352 60.4205 33.7519C60.3365 33.89 60.1876 33.9713 60.0251 33.9713H59.1611C58.9417 33.9713 58.744 34.1175 58.6953 34.3315C58.6113 34.7025 58.4434 35.1277 58.1888 35.6071C58.1753 35.6315 58.1617 35.6559 58.1455 35.6748C57.6715 36.3167 57.2247 36.7338 56.8022 36.9261C56.0005 37.3621 55.2313 37.5788 54.4974 37.5788V37.6004C54.4974 37.6627 54.6788 37.9309 55.039 38.4048L59.1394 44.0246V44.29C59.1394 44.3171 59.1259 44.3307 59.0988 44.3307H57.5226C57.379 44.3307 57.2409 44.2602 57.1515 44.1465C53.9963 39.9784 52.4174 37.8848 52.4174 37.8659V36.5604L52.439 36.509C52.7234 36.5577 53.0619 36.5794 53.4492 36.5794C55.2638 36.5794 56.3959 35.9104 56.8455 34.5698C56.8455 34.5698 56.8455 34.5671 56.8455 34.5644C56.9457 34.2719 56.7128 33.9686 56.4013 33.9686H52.0084C51.9813 33.9686 51.9678 33.9523 51.9678 33.9171C52.5121 33.0207 52.7911 32.5711 52.8046 32.5711H56.7317V32.5494C56.5015 32.0321 56.0655 31.6313 55.4263 31.3469C54.9632 31.1763 54.5488 31.0923 54.1832 31.0923H51.9894V31.0409C52.5203 30.1444 52.7911 29.6948 52.8046 29.6948L52.8074 29.7002Z" fill="white"/>
<path d="M52.8074 29.7002H61.1192V29.7219C60.8024 30.2744 60.5749 30.6617 60.434 30.8838C60.3501 31.0192 60.2011 31.0977 60.044 31.0977H58.8659C58.5355 31.0977 58.308 31.4363 58.4407 31.7396C58.5084 31.8967 58.568 32.0619 58.614 32.2379C58.6682 32.4384 58.8496 32.5765 59.0582 32.5765H61.0569C61.084 32.5846 61.0976 32.5982 61.0976 32.6171C60.778 33.1561 60.5532 33.5352 60.4205 33.7519C60.3365 33.89 60.1876 33.9713 60.0251 33.9713H59.1611C58.9417 33.9713 58.744 34.1175 58.6953 34.3315C58.6113 34.7025 58.4434 35.1277 58.1888 35.6071C58.1753 35.6315 58.1617 35.6559 58.1455 35.6748C57.6715 36.3167 57.2247 36.7338 56.8022 36.9261C56.0005 37.3621 55.2313 37.5788 54.4974 37.5788V37.6004C54.4974 37.6627 54.6788 37.9309 55.039 38.4048L59.1394 44.0246V44.29C59.1394 44.3171 59.1259 44.3307 59.0988 44.3307H57.5226C57.379 44.3307 57.2409 44.2602 57.1515 44.1465C53.9963 39.9784 52.4174 37.8848 52.4174 37.8659V36.5604L52.439 36.509C52.7234 36.5577 53.0619 36.5794 53.4492 36.5794C55.2638 36.5794 56.3959 35.9104 56.8455 34.5698C56.8455 34.5698 56.8455 34.5671 56.8455 34.5644C56.9457 34.2719 56.7128 33.9686 56.4013 33.9686H52.0084C51.9813 33.9686 51.9678 33.9523 51.9678 33.9171C52.5121 33.0207 52.7911 32.5711 52.8046 32.5711H56.7317V32.5494C56.5015 32.0321 56.0655 31.6313 55.4263 31.3469C54.9632 31.1763 54.5488 31.0923 54.1832 31.0923H51.9894V31.0409C52.5203 30.1444 52.7911 29.6948 52.8046 29.6948L52.8074 29.7002Z" fill="white"/>
<path d="M52.8074 29.7002H61.1192V29.7219C60.8024 30.2744 60.5749 30.6617 60.434 30.8838C60.3501 31.0192 60.2011 31.0977 60.044 31.0977H58.8659C58.5355 31.0977 58.308 31.4363 58.4407 31.7396C58.5084 31.8967 58.568 32.0619 58.614 32.2379C58.6682 32.4384 58.8496 32.5765 59.0582 32.5765H61.0569C61.084 32.5846 61.0976 32.5982 61.0976 32.6171C60.778 33.1561 60.5532 33.5352 60.4205 33.7519C60.3365 33.89 60.1876 33.9713 60.0251 33.9713H59.1611C58.9417 33.9713 58.744 34.1175 58.6953 34.3315C58.6113 34.7025 58.4434 35.1277 58.1888 35.6071C58.1753 35.6315 58.1617 35.6559 58.1455 35.6748C57.6715 36.3167 57.2247 36.7338 56.8022 36.9261C56.0005 37.3621 55.2313 37.5788 54.4974 37.5788V37.6004C54.4974 37.6627 54.6788 37.9309 55.039 38.4048L59.1394 44.0246V44.29C59.1394 44.3171 59.1259 44.3307 59.0988 44.3307H57.5226C57.379 44.3307 57.2409 44.2602 57.1515 44.1465C53.9963 39.9784 52.4174 37.8848 52.4174 37.8659V36.5604L52.439 36.509C52.7234 36.5577 53.0619 36.5794 53.4492 36.5794C55.2638 36.5794 56.3959 35.9104 56.8455 34.5698C56.8455 34.5698 56.8455 34.5671 56.8455 34.5644C56.9457 34.2719 56.7128 33.9686 56.4013 33.9686H52.0084C51.9813 33.9686 51.9678 33.9523 51.9678 33.9171C52.5121 33.0207 52.7911 32.5711 52.8046 32.5711H56.7317V32.5494C56.5015 32.0321 56.0655 31.6313 55.4263 31.3469C54.9632 31.1763 54.5488 31.0923 54.1832 31.0923H51.9894V31.0409C52.5203 30.1444 52.7911 29.6948 52.8046 29.6948L52.8074 29.7002Z" stroke="white" stroke-width="0.7"/>
<path d="M52.8074 29.7002H61.1192V29.7219C60.8024 30.2744 60.5749 30.6617 60.434 30.8838C60.3501 31.0192 60.2011 31.0977 60.044 31.0977H58.8659C58.5355 31.0977 58.308 31.4363 58.4407 31.7396C58.5084 31.8967 58.568 32.0619 58.614 32.2379C58.6682 32.4384 58.8496 32.5765 59.0582 32.5765H61.0569C61.084 32.5846 61.0976 32.5982 61.0976 32.6171C60.778 33.1561 60.5532 33.5352 60.4205 33.7519C60.3365 33.89 60.1876 33.9713 60.0251 33.9713H59.1611C58.9417 33.9713 58.744 34.1175 58.6953 34.3315C58.6113 34.7025 58.4434 35.1277 58.1888 35.6071C58.1753 35.6315 58.1617 35.6559 58.1455 35.6748C57.6715 36.3167 57.2247 36.7338 56.8022 36.9261C56.0005 37.3621 55.2313 37.5788 54.4974 37.5788V37.6004C54.4974 37.6627 54.6788 37.9309 55.039 38.4048L59.1394 44.0246V44.29C59.1394 44.3171 59.1259 44.3307 59.0988 44.3307H57.5226C57.379 44.3307 57.2409 44.2602 57.1515 44.1465C53.9963 39.9784 52.4174 37.8848 52.4174 37.8659V36.5604L52.439 36.509C52.7234 36.5577 53.0619 36.5794 53.4492 36.5794C55.2638 36.5794 56.3959 35.9104 56.8455 34.5698C56.8455 34.5698 56.8455 34.5671 56.8455 34.5644C56.9457 34.2719 56.7128 33.9686 56.4013 33.9686H52.0084C51.9813 33.9686 51.9678 33.9523 51.9678 33.9171C52.5121 33.0207 52.7911 32.5711 52.8046 32.5711H56.7317V32.5494C56.5015 32.0321 56.0655 31.6313 55.4263 31.3469C54.9632 31.1763 54.5488 31.0923 54.1832 31.0923H51.9894V31.0409C52.5203 30.1444 52.7911 29.6948 52.8046 29.6948L52.8074 29.7002Z" stroke="white" stroke-width="0.7"/>
<path d="M49.0299 37.3058C49.0299 37.3058 44.4122 44.3123 41.6957 48.3721H41.6876C40.6042 49.9917 38.8276 49.9917 37.7415 48.3748C35.0142 44.3069 30.4859 37.2788 30.4859 37.2788C30.2476 36.8969 30.3153 36.3796 30.7053 36.0735C30.8651 35.949 31.0682 35.8921 31.2686 35.8921H34.8707C34.9763 33.2677 35.5451 30.7219 36.5661 28.3115C37.663 25.7169 39.2338 23.385 41.2353 21.3835C43.2367 19.3848 45.5686 17.8113 48.1632 16.7144C50.8499 15.5769 53.7045 15 56.6457 15C59.587 15 62.4415 15.5769 65.1282 16.7144C67.7255 17.8113 70.0547 19.3821 72.0561 21.3835C74.0549 23.385 75.6284 25.7169 76.7253 28.3115C77.8628 30.9981 78.4397 33.8527 78.4397 36.794C78.4397 37.3546 77.9278 37.7988 77.3455 37.6796C76.9203 37.5929 76.6305 37.1948 76.6305 36.7588C76.6115 25.7521 67.6632 16.8065 56.6457 16.8065C45.6282 16.8065 36.6609 25.771 36.6609 36.7913C36.6609 37.2896 36.2547 37.6985 35.7563 37.6985H32.8909L38.7815 47.0342C39.2392 47.7573 40.2928 47.7573 40.7478 47.0342L46.6384 37.6985H43.0661H39.7701C39.2555 37.6985 38.8411 37.2679 38.8682 36.7452C38.8926 36.255 39.3313 35.8894 39.8215 35.8894H42.1913L44.0059 35.8948H48.2824C48.7076 35.8948 49.0922 36.1954 49.1734 36.645C49.214 36.8725 49.1545 37.1081 49.0299 37.3058Z" fill="url(#paint0_linear_486_179)"/>
<path d="M49.0299 37.3058C49.0299 37.3058 44.4122 44.3123 41.6957 48.3721H41.6876C40.6042 49.9917 38.8276 49.9917 37.7415 48.3748C35.0142 44.3069 30.4859 37.2788 30.4859 37.2788C30.2476 36.8969 30.3153 36.3796 30.7053 36.0735C30.8651 35.949 31.0682 35.8921 31.2686 35.8921H34.8707C34.9763 33.2677 35.5451 30.7219 36.5661 28.3115C37.663 25.7169 39.2338 23.385 41.2353 21.3835C43.2367 19.3848 45.5686 17.8113 48.1632 16.7144C50.8499 15.5769 53.7045 15 56.6457 15C59.587 15 62.4415 15.5769 65.1282 16.7144C67.7255 17.8113 70.0547 19.3821 72.0561 21.3835C74.0549 23.385 75.6284 25.7169 76.7253 28.3115C77.8628 30.9981 78.4397 33.8527 78.4397 36.794C78.4397 37.3546 77.9278 37.7988 77.3455 37.6796C76.9203 37.5929 76.6305 37.1948 76.6305 36.7588C76.6115 25.7521 67.6632 16.8065 56.6457 16.8065C45.6282 16.8065 36.6609 25.771 36.6609 36.7913C36.6609 37.2896 36.2547 37.6985 35.7563 37.6985H32.8909L38.7815 47.0342C39.2393 47.7573 40.2928 47.7573 40.7478 47.0342L46.6384 37.6985H39.7701C39.2555 37.6985 38.8411 37.2679 38.8682 36.7452C38.8926 36.255 39.3313 35.8894 39.8215 35.8894H42.1913L44.0059 35.8948H48.2824C48.7076 35.8948 49.0922 36.1954 49.1734 36.645C49.214 36.8725 49.1545 37.1081 49.0299 37.3058Z" fill="white"/>
<path d="M49.0299 37.3058C49.0299 37.3058 44.4122 44.3123 41.6957 48.3721H41.6876C40.6042 49.9917 38.8276 49.9917 37.7415 48.3748C35.0142 44.3069 30.4859 37.2788 30.4859 37.2788C30.2476 36.8969 30.3153 36.3796 30.7053 36.0735C30.8651 35.949 31.0682 35.8921 31.2686 35.8921H34.8707C34.9763 33.2677 35.5451 30.7219 36.5661 28.3115C37.663 25.7169 39.2338 23.385 41.2353 21.3835C43.2367 19.3848 45.5686 17.8113 48.1632 16.7144C50.8499 15.5769 53.7045 15 56.6457 15C59.587 15 62.4415 15.5769 65.1282 16.7144C67.7255 17.8113 70.0547 19.3821 72.0561 21.3835C74.0549 23.385 75.6284 25.7169 76.7253 28.3115C77.8628 30.9981 78.4397 33.8527 78.4397 36.794C78.4397 37.3546 77.9278 37.7988 77.3455 37.6796C76.9203 37.5929 76.6305 37.1948 76.6305 36.7588C76.6115 25.7521 67.6632 16.8065 56.6457 16.8065C45.6282 16.8065 36.6609 25.771 36.6609 36.7913C36.6609 37.2896 36.2547 37.6985 35.7563 37.6985H32.8909L38.7815 47.0342C39.2393 47.7573 40.2928 47.7573 40.7478 47.0342L46.6384 37.6985H39.7701C39.2555 37.6985 38.8411 37.2679 38.8682 36.7452C38.8926 36.255 39.3313 35.8894 39.8215 35.8894H42.1913L44.0059 35.8948H48.2824C48.7076 35.8948 49.0922 36.1954 49.1734 36.645C49.214 36.8725 49.1545 37.1081 49.0299 37.3058Z" fill="#00BCD5"/>
<path d="M77.3808 39.8697C76.9393 39.9455 76.6387 40.3626 76.6387 40.8122V41.343C76.6387 41.7899 76.9393 42.2069 77.3808 42.2855C77.9522 42.3857 78.4478 41.9469 78.4478 41.3944V40.7607C78.4478 40.2082 77.9522 39.7722 77.3808 39.8697Z" fill="white"/>
<path d="M77.3808 39.8697C76.9393 39.9455 76.6387 40.3626 76.6387 40.8122V41.343C76.6387 41.7899 76.9393 42.2069 77.3808 42.2855C77.9522 42.3857 78.4478 41.9469 78.4478 41.3944V40.7607C78.4478 40.2082 77.9522 39.7722 77.3808 39.8697Z" fill="#00BCD5"/>
<path d="M76.6387 45.6168C76.6387 45.1673 76.9393 44.7502 77.3808 44.6743C77.9522 44.5768 78.4478 45.0129 78.4478 45.5654V46.1991C78.4478 46.7516 77.9522 47.1904 77.3808 47.0902C76.9393 47.0116 76.6387 46.5946 76.6387 46.1477V45.6168Z" fill="white"/>
<path d="M76.6387 45.6168C76.6387 45.1673 76.9393 44.7502 77.3808 44.6743C77.9522 44.5768 78.4478 45.0129 78.4478 45.5654V46.1991C78.4478 46.7516 77.9522 47.1904 77.3808 47.0902C76.9393 47.0116 76.6387 46.5946 76.6387 46.1477V45.6168Z" fill="#00BCD5"/>
<path d="M49.0299 37.3058C49.0299 37.3058 44.4122 44.3123 41.6957 48.3721H41.6876C40.6042 49.9917 38.8276 49.9917 37.7415 48.3748C35.0142 44.3069 30.4859 37.2788 30.4859 37.2788C30.2476 36.8969 30.3153 36.3796 30.7053 36.0735C30.8651 35.949 31.0682 35.8921 31.2686 35.8921H34.8707C34.9763 33.2677 35.5451 30.7219 36.5661 28.3115C37.663 25.7169 39.2338 23.385 41.2353 21.3835C43.2367 19.3848 45.5686 17.8113 48.1632 16.7144C50.8499 15.5769 53.7045 15 56.6457 15C59.587 15 62.4415 15.5769 65.1282 16.7144C67.7255 17.8113 70.0547 19.3821 72.0561 21.3835C74.0549 23.385 75.6284 25.7169 76.7253 28.3115C77.8628 30.9981 78.4397 33.8527 78.4397 36.794C78.4397 37.3546 77.9278 37.7988 77.3455 37.6796C76.9203 37.5929 76.6305 37.1948 76.6305 36.7588C76.6115 25.7521 67.6632 16.8065 56.6457 16.8065C45.6282 16.8065 36.6609 25.771 36.6609 36.7913C36.6609 37.2896 36.2547 37.6985 35.7563 37.6985H32.8909L38.7815 47.0342C39.2393 47.7573 40.2928 47.7573 40.7478 47.0342L46.6384 37.6985H39.7701C39.2555 37.6985 38.8411 37.2679 38.8682 36.7452C38.8926 36.255 39.3313 35.8894 39.8215 35.8894H42.1913L44.0059 35.8948H48.2824C48.7076 35.8948 49.0922 36.1954 49.1734 36.645C49.214 36.8725 49.1545 37.1081 49.0299 37.3058Z" stroke="#00BCD5" stroke-width="0.2"/>
<path d="M77.3808 39.8697C76.9393 39.9455 76.6387 40.3626 76.6387 40.8122V41.343C76.6387 41.7899 76.9393 42.2069 77.3808 42.2855C77.9522 42.3857 78.4478 41.9469 78.4478 41.3944V40.7607C78.4478 40.2082 77.9522 39.7722 77.3808 39.8697Z" stroke="#00BCD5" stroke-width="0.2"/>
<path d="M76.6387 45.6168C76.6387 45.1673 76.9393 44.7502 77.3808 44.6743C77.9522 44.5768 78.4478 45.0129 78.4478 45.5654V46.1991C78.4478 46.7516 77.9522 47.1904 77.3808 47.0902C76.9393 47.0116 76.6387 46.5946 76.6387 46.1477V45.6168Z" stroke="#00BCD5" stroke-width="0.2"/>
<defs>
<linearGradient id="paint0_linear_486_179" x1="30.3477" y1="49.5871" x2="78.4397" y2="49.5871" gradientUnits="userSpaceOnUse">
<stop stop-color="#FF585C"/>
<stop offset="1" stop-color="#FF797C"/>
</linearGradient>
</defs>
</svg>
