<svg width="24" height="25" viewBox="0 0 24 25" fill="none" xmlns="http://www.w3.org/2000/svg">
<rect x="0.25" y="1.14551" width="23.5" height="23.5" rx="11.75" fill="#F9F9FB"/>
<rect x="0.25" y="1.14551" width="23.5" height="23.5" rx="11.75" stroke="#212126" stroke-width="0.5"/>
<mask id="mask0_586_469" style="mask-type:alpha" maskUnits="userSpaceOnUse" x="5" y="5" width="14" height="15">
<rect x="5" y="5.89551" width="14" height="14" fill="#D9D9D9"/>
</mask>
<g mask="url(#mask0_586_469)">
<path d="M11.0813 13.8143H8.33965C8.08687 13.8143 7.87055 13.7244 7.69069 13.5445C7.51083 13.3647 7.4209 13.1483 7.4209 12.8956C7.4209 12.6428 7.51083 12.4265 7.69069 12.2466C7.87055 12.0668 8.08687 11.9768 8.33965 11.9768H11.0813V9.23516C11.0813 8.98238 11.1712 8.76606 11.3511 8.5862C11.531 8.40634 11.7473 8.31641 12.0001 8.31641C12.2528 8.31641 12.4692 8.40634 12.649 8.5862C12.8289 8.76606 12.9188 8.98238 12.9188 9.23516V11.9768H15.6605C15.9133 11.9768 16.1296 12.0668 16.3094 12.2466C16.4893 12.4265 16.5792 12.6428 16.5792 12.8956C16.5792 13.1483 16.4893 13.3647 16.3094 13.5445C16.1296 13.7244 15.9133 13.8143 15.6605 13.8143H12.9188V16.556C12.9188 16.8088 12.8289 17.0251 12.649 17.2049C12.4692 17.3848 12.2528 17.4747 12.0001 17.4747C11.7473 17.4747 11.531 17.3848 11.3511 17.2049C11.1712 17.0251 11.0813 16.8088 11.0813 16.556V13.8143Z" fill="#212126"/>
</g>
</svg>
