<?xml version="1.0" encoding="UTF-8"?>
<svg id="Isolation_Mode" xmlns="http://www.w3.org/2000/svg" version="1.1" viewBox="0 0 750.2 246.8">
  <!-- Generator: Adobe Illustrator 29.5.1, SVG Export Plug-In . SVG Version: 2.1.0 Build 141)  -->
  <defs>
    <style>
      .st0 {
        fill: #ff5a60;
      }

      .st0, .st1 {
        fill-rule: evenodd;
      }

      .st1 {
        fill: #00bcd5;
      }
    </style>
  </defs>
  <g id="_ff5a60">
    <path class="st0" d="M388.4,43.1c0-5.3-4.9-9.6-11.1-9.6s-8.2,2.5-11,7.1c-2.8-4.7-5.6-7.1-11-7.1s-11.3,4.3-11.3,9.6c0,9.8,11.3,19.3,22.3,28.9,11-9.5,22.1-19.1,22.1-28.9h0ZM81.2,170.3c-8.8-12.4-25.3-21-38.1-29.5-7.3-4.1-11-12.6-11-15.2-.4-5.3,1.7-17.3,21.8-15.6,0,0,19.3,2.1,27.5,21v-25.3c-14.6-12-36.9-12-36.9-12C21,93.8-.2,109.3,0,129.8c.6,18.2,7.7,29.6,22.3,40.5,5.3,4.1,12,8.6,19.7,12.6,11.4,6.9,15.5,14.4,15.5,22.1.2,10.9-9,24.8-28.9,24.8,0,0-20.1,0-28.1-21.2v27c14.4,10.9,36.8,10.9,36.8,10.9,26.8,0,53.8-21,52.9-49.9,0-10.1-3.5-18.9-9-26.2ZM347,214.7v-83.1c0-19.9-22.1-38.4-45.4-38.4,0,0-4.1.2-9.9,1.1-7.7,1.5-18.4,4.7-26.6,12.4v26.5c8.3-18.2,21.6-22.2,26.6-22.9,1.3,0,1.9-.2,1.9-.2,19.3,0,21.2,12.4,20.8,17.4,2.1,6.4-2.8,15.2-2.8,15.2-2.6,4.7-10.3,8.3-19.9,12.7-19.5,8.8-46.3,19.9-50.8,45.4v15.8c.2.7.4,1.5.4,2.4,4.5,21.6,18.8,27.8,37,27.8s9.4-1.1,13.5-2.6c10.5-3.9,17.4-11.6,20.6-17.6,0,0,2.4,16.5,11,17.6h38.6c-15-10.1-15-29.5-15-29.5h0ZM311.5,219c-3,2.8-7.5,9-19.9,10.3-1.5.2-2.8.4-4.5.4-9,0-15.4-9.2-15.4-18.8,0-20.4,9.8-31.7,19.9-39.4,8.2-6.2,16.3-9.9,19.9-14.4v61.9h0ZM476.6,214.7v-83.1c0-19.9-22.1-38.4-45.4-38.4,0,0-4.1.2-9.8,1.1h-.1c-7.7,1.5-18.6,4.7-26.8,12.4v26.5c8.6-18.6,22.1-22.2,26.8-22.9h.1c1,0,1.3-.2,1.3-.2,19.9,0,21.5,12.4,21.4,17.4,1.9,6.4-3,15.2-3,15.2-2.6,4.7-10.3,8.3-19.7,12.7h-.1c-19.5,8.8-46.2,19.9-50.7,45.4v15.4c.2,1.1.4,1.9.4,2.8,4.3,21.6,18.5,27.8,36.8,27.8s9.6-1.1,13.5-2.6h.1c10.3-3.9,17.3-11.6,20.5-17.6,0,0,2.4,16.5,10.7,17.6h39c-15-10.1-15-29.5-15-29.5h0ZM441.1,219c-3.2,2.8-7.7,9-19.7,10.3h-.1c-1.3.2-2.8.4-4.5.4-9,0-15.2-9.2-15.2-18.8,0-20.4,9.8-31.7,19.7-39.4h.1c8.1-6.2,16.1-9.9,19.7-14.4v61.9h0ZM221.5,214.2v-81.8c0-30.8-21.8-39.2-40.9-39.2s-33.9,17.5-37.5,25.9V37.5c0-33-17.3-33.6-25.7-33.6h-23.7c13.5,6.6,13.5,30,13.5,30v176.7c0,32.8,17.6,33.6,25.9,33.6h23.6c-13.7-6.8-13.7-30-13.7-30v-81.8c6.6-14.2,21.2-14.2,21.2-14.2,11.8,0,21.4,9.9,21.4,21.2-.2,29.8-.2,71.3-.2,71.3,0,32.8,17.4,33.6,26.1,33.6h23.4c-13.5-6.8-13.5-30-13.5-30h0ZM686.5,213.6v-86.6c0-33.4-17.6-33.4-25.9-33.4h-23.6c13.7,6,13.7,29.6,13.7,29.6v88.7c.6,31.5,17.5,32.3,25.5,32.3h23.8c-13.5-7-13.5-30.6-13.5-30.6h0ZM661.7,85c9.9,0,17.8-8.2,17.8-18s-7.9-17.5-17.8-17.5-18.2,7.7-18.2,17.5,7.9,18,18.2,18ZM617.8,214.6V37.7c0-33.2-17.1-32.8-25.7-32.8h-23.6c13.7,5.6,13.7,29.1,13.7,29.1v71.1c-6.9-9.7-20.5-11.1-23.8-11.1s-.7-.2-.7-.2c-34.5,0-61.9,33-61.9,81.6s17.8,79.1,62.6,70.3v-.2c1.9-.4,16-4.1,24.6-19.3.9,8.1,3.8,15.4,10.2,18h39.5c-12.6-8.1-14.8-24.4-14.8-29.6h0ZM582.2,133.5v85.5c-6,6.7-11.1,8.4-13.1,9.2-3.9.9-7.5,1.5-10.7,1.3-25.5-1.1-23.6-40.5-23.6-54.2,0-28.3,0-67.9,22.5-67.9,0,0,.4.4,1.1.4,4.3.6,17.3,3.4,23.8,21.9v3.8h0Z"/>
  </g>
  <g id="_00bcd5">
    <path class="st1" d="M747.2,192.8c-.8-1.3-1.5-2.2-2.5-2.8-.7-.6-1.5-.9-1.9-.9-.8,0-1.1.2-1.7.7-.4.6-.6,1.1-.6,1.7,0,.8.2,1.3.6,1.7,1.3,1.5,2.4,3,3,4.7.8,1.7,1.1,3.4,1.1,5.4s-.3,3.7-1.1,5.6c-.8,1.7-1.7,3.2-3,4.3-1.3,1.5-2.8,2.5-4.5,3.2-1.9.8-3.8,1.1-5.6,1.1s-3.7-.4-5.6-1.1c-1.7-.7-3.2-1.7-4.5-3.2-1.3-1.1-2.2-2.6-3-4.3-.7-1.9-1.1-3.7-1.1-5.6s.4-3.8,1.1-5.4c.6-1.7,1.5-3.2,2.7-4.7.6-.4.7-.9.7-1.7s-.2-1.1-.5-1.5c-.4-.6-1-.8-1.5-.8s-1.1.4-1.9.9c-.7.8-1.7,1.7-2.4,2.8-.9,1.3-1.7,2.8-2.3,4.5-.6,1.7-.9,3.6-.9,5.6.2,2.8.8,5.4,1.7,7.7,1.2,2.4,2.5,4.3,4.1,6,1.8,1.9,3.7,3.2,6,4.1,2.5.9,4.9,1.5,7.5,1.5s5.2-.6,7.7-1.5c2.2-.9,4.3-2.4,6-4.1,1.7-1.7,3-3.8,4-6.2.9-2.2,1.5-4.7,1.5-7.3s-.4-4.3-1-6.2c-.5-1.7-1.3-3.2-2-4.3h0ZM717.6,180.8c1.7,1.9,3.7,3.2,6,4.1,2.2.9,4.7,1.5,7.3,1.5h.2c2.6,0,5.2-.6,7.5-1.5,2.4-1.1,4.3-2.4,6-4.1,1.9-1.9,3-3.8,4.1-6.2.9-2.3,1.3-4.7,1.3-7.3s-.3-5.3-1.5-7.5c-.9-2.4-2.4-4.5-4.1-6.2-1.7-1.7-3.8-3-6-4.1-2.5-.9-4.7-1.3-7.3-1.3h-.2c-2.6,0-5.1.4-7.3,1.3-2.2,1.1-4.5,2.6-6.2,4.3s-3,3.8-4.1,6c-1.1,2.4-1.5,4.7-1.5,7.3s.5,5.2,1.7,7.7c.9,2.2,2.5,4.3,4.1,6ZM717.8,161.6c.8-1.7,1.9-3.1,3.2-4.5,1.1-1.3,2.8-2.2,4.5-3,1.7-.8,3.6-1.1,5.4-1.1h.2c1.9,0,3.7.4,5.4,1.1,1.7.7,3.2,1.7,4.5,3,1.3,1.3,2.5,2.8,3,4.5.7,1.7,1.1,3.6,1.1,5.6s-.3,3.8-1.1,5.4c-.6,1.7-1.7,3.4-3,4.5-1.3,1.3-2.8,2.4-4.5,3.2-1.7.8-3.5,1.1-5.4,1.1h-.2c-1.9,0-3.8-.4-5.4-1.1-1.7-.8-3.4-1.9-4.5-3.2-1.3-1.1-2.4-2.8-3.2-4.5-.7-1.7-1.1-3.6-1.1-5.4s.3-3.9,1.1-5.6ZM724.3,122.3h23.3c.7,0,1.3-.2,1.9-.7.3-.4.8-1,.8-1.7s-.4-1.3-.8-1.7c-.6-.6-1.1-.8-1.9-.8h-23.3c-1.1,0-2.3-.2-3.2-.6-.9-.6-1.7-1.1-2.5-1.9-.8-.8-1.3-1.5-1.9-2.5-.4-.9-.6-2-.6-3.2s.2-2.1.6-3.2c.5-1,1.1-1.7,1.9-2.5.7-.8,1.5-1.3,2.5-1.9.9-.4,2.1-.6,3.2-.6h23.3c.7,0,1.3-.2,1.9-.8.3-.5.8-.9.8-1.7s-.4-1.3-.8-1.7c-.6-.5-1.1-.7-1.9-.7h-23.3c-1.9,0-3.4.4-5.1.9-1.5.8-3,1.7-4.1,2.8-1.1,1.1-2,2.4-2.8,4.1-.7,1.5-.9,3.4-.9,5.1s.4,4.3,1.3,6c1.1,1.9,2.4,3.4,4,4.5-1.5,1.3-2.8,2.8-4,4.5-.9,1.9-1.3,3.8-1.3,6s.4,3.2,1.1,4.5c.7,1.5,1.5,2.6,2.4,3.6h-.9c-.8,0-1.3.2-1.7.8-.5.6-.7.9-.7,1.6s.2,1.3.7,1.7c.4.6.9.8,1.7.8h33.5c.7,0,1.3-.2,1.9-.8.3-.4.8-.9.8-1.7s-.4-1.1-.8-1.6c-.6-.6-1.1-.8-1.9-.8h-23.7c-2-.2-3.9-.9-5.4-2.4-1.5-1.5-2.2-3.4-2.2-5.6s.8-3.9,2.2-5.7c1.5-1.5,3.6-2.2,5.8-2.4h0ZM730.9,231.1c-3.8,0-7,3.2-7,7.1s3.2,6.9,7,6.9,7.1-3.2,7.1-6.9-3.2-7.1-7.1-7.1Z"/>
  </g>
  <path class="st1" d="M366.3,0c-26.5,0-47.8,21.5-47.8,48s21.3,47.8,47.8,47.8,47.8-21.6,47.8-47.8S392.6,0,366.3,0ZM366.3,90.2c-23.2,0-42.2-18.9-42.2-42.2s18.9-42.4,42.2-42.4,42.2,19,42.2,42.4-19.2,42.2-42.2,42.2Z"/>
</svg>