<?xml version="1.0" encoding="UTF-8"?>
<svg id="Layer_1" xmlns="http://www.w3.org/2000/svg" version="1.1" viewBox="0 0 264 127">
  <!-- Generator: Adobe Illustrator 29.3.1, SVG Export Plug-In . SVG Version: 2.1.0 Build 151)  -->
  <defs>
    <style>
      .st0 {
        fill: #472e81;
      }
    </style>
  </defs>
  <path class="st0" d="M148.2,12.3l6.5-11.1h-45.4l6.5,11.1h-13.6l29.8,50.9,29.8-51h-13.6ZM114.5,4.2h34.9l-4.7,8.1h-25.4l-4.7-8.1h0ZM143,15.3l-11,18.7-11-18.7h21.9,0ZM107.4,15.3h10.1l14.5,24.7,14.5-24.7h10.1l-24.6,42-24.6-42h0Z"/>
  <g>
    <polygon class="st0" points="18.4 99 6.2 73 0 73 16.4 107.6 18.4 107.6 34.2 73 30.2 73 18.4 99"/>
    <rect class="st0" x="39.3" y="73" width="5.6" height="34.5"/>
    <path class="st0" d="M62.5,73h-12.6v34.5h5.5v-14.6h7.1c6.5,0,11-4.2,11-9.9s-4.6-10-11-10h0ZM60.8,90h-5.3v-13.9h5.3c4.1,0,7,2.8,7,6.9s-2.9,6.9-7,6.9h0Z"/>
    <g>
      <path class="st0" d="M258.5,106.2c0-.4.1-.7.4-1,.3-.3.6-.4,1-.4s.7.1.9.4.4.6.4,1-.1.7-.4,1-.6.4-.9.4-.7-.1-1-.4c-.3-.3-.4-.6-.4-1h0Z"/>
      <path class="st0" d="M262,96.9h1.5c.3.8.4,1.6.4,2.3,0,1.2-.4,2.2-1.1,2.9-.7.7-1.7,1.1-2.9,1.1s-2.2-.4-3-1.1-1.1-1.7-1.1-2.8,0-.8.1-1.1.2-.7.4-1.2h1.7c-.5.8-.8,1.5-.8,2.2s.2,1.3.7,1.7c.5.4,1.1.7,1.9.7s1.4-.2,1.9-.7c.5-.5.7-1.2.7-2s-.2-1.3-.5-2.1h0Z"/>
      <path class="st0" d="M255.9,91c0-1.2.4-2.2,1.2-3s1.8-1.2,2.9-1.2,2.1.4,2.8,1.2,1.1,1.8,1.1,3-.4,2.2-1.1,3-1.7,1.2-2.9,1.2-2.1-.4-2.9-1.2c-.8-.8-1.1-1.8-1.1-3h0ZM257.3,91.1c0,.8.2,1.4.7,1.8.5.5,1.1.7,1.9.7s1.4-.2,1.9-.7.7-1.1.7-1.9-.2-1.4-.7-1.9-1.1-.7-1.9-.7-1.4.2-1.9.8-.7,1.2-.7,1.9h0Z"/>
      <path class="st0" d="M258.1,78.6h5.7v1.6h-4.4c-.9,0-1.5.1-1.8.3s-.5.6-.5,1.2,0,.6.2.9c.1.3.4.6.8.9h5.7v1.6h-7.9v-1.6h1c-.8-.8-1.2-1.6-1.2-2.3s.5-1.8,1.4-2.3c-1-.8-1.4-1.7-1.4-2.6s.3-1.4.8-1.9,1.4-.7,2.6-.7h4.6v1.6h-4.7c-.7,0-1.2.1-1.5.4s-.5.7-.5,1.2.3,1.2,1,1.8h0Z"/>
    </g>
    <path class="st0" d="M90.7,87.4c-6.1-1.5-8.2-3-8.2-6.1s3.1-6.2,7.1-6.2,7.2,2.8,7.7,6.1h0c0,.1,3.5-.8,3.5-.8h0c-.8-3.8-4.6-7.7-11.1-7.7s-11.2,4.2-11.2,9.7,3,7.4,10.1,9c6.4,1.5,8.8,3.4,8.8,7.1s-3.5,7.2-8,7.2-8.4-3.5-8.6-7.5h0c0-.1-3.5.8-3.5.8h0c.7,4.4,4.7,9,12,9s12.1-4.5,12.1-10.4-3.1-8.3-10.7-10.2h0Z"/>
    <polygon class="st0" points="126 88.8 110.6 88.8 110.6 73.1 106.5 73.1 106.5 107.6 110.6 107.6 110.6 91.8 126 91.8 126 107.6 130.1 107.6 130.1 73.1 126 73.1 126 88.8"/>
    <path class="st0" d="M135.2,107.4v.2c0,0,3.2,0,3.2,0l5.2-11.5h15.4l5.4,11.5h4.6l-16.3-34.5h-1.2l-16.2,34.4h0ZM144.9,93l6.2-13.9,6.4,13.9h-12.7Z"/>
    <path class="st0" d="M174,107.4v.2c0,0,3.2,0,3.2,0l5.2-11.5h15.4l5.4,11.5h4.6l-16.3-34.5h-1.2l-16.2,34.4h0ZM183.7,93l6.2-13.9,6.4,13.9h-12.7Z"/>
    <path class="st0" d="M224,73.1h-11.3v34.5h11.3c4.8,0,9.3-1.8,12.6-4.9,3.3-3.2,5.1-7.6,5.1-12.3s-1.8-9.1-5.1-12.3c-3.3-3.2-7.7-4.9-12.6-4.9h0ZM223.4,105.2h-6.5v-29.8h6.5c8,0,13.8,6.3,13.8,14.9s-5.8,14.8-13.8,14.8Z"/>
    <rect class="st0" x="246.7" y="73.1" width="4.2" height="34.5"/>
  </g>
  <g>
    <path class="st0" d="M7.3,117.4v8.3h-1l-5-6.2v6.2H0v-8.3h1l5,6.2v-6.2h1.2Z"/>
    <path class="st0" d="M9.4,121.5c0-2.4,1.9-4.3,4.4-4.3s4.4,1.8,4.4,4.3-1.9,4.3-4.4,4.3-4.4-1.8-4.4-4.3ZM17.1,121.5c0-1.8-1.4-3.2-3.2-3.2s-3.3,1.4-3.3,3.2,1.4,3.2,3.3,3.2,3.2-1.4,3.2-3.2Z"/>
    <path class="st0" d="M19.4,124.9c0-.5.4-.8.8-.8s.8.3.8.8-.4.8-.8.8-.8-.3-.8-.8Z"/>
    <path class="st0" d="M24.9,117.4v8.3h-1.2v-7.3h-1.9v-1h3.1Z"/>
    <path class="st0" d="M38.9,125.7v-6.1l-3,5.1h-.5l-3-5v6.1h-1.1v-8.3h1l3.5,5.9,3.4-5.9h1v8.3h-1.1Z"/>
    <path class="st0" d="M48.2,123.6h-4.4l-.9,2.1h-1.2l3.8-8.3h1.2l3.8,8.3h-1.2l-.9-2.1h0ZM47.8,122.7l-1.8-4.1-1.8,4.1h3.6Z"/>
    <path class="st0" d="M53.2,118.4h-2.9v-1h6.9v1h-2.9v7.3h-1.2v-7.3Z"/>
    <path class="st0" d="M58,121.5c0-2.5,1.9-4.3,4.4-4.3s2.4.4,3.2,1.3l-.8.8c-.6-.7-1.4-1-2.3-1-1.9,0-3.3,1.4-3.3,3.2s1.4,3.2,3.3,3.2,1.7-.3,2.3-1l.8.8c-.8.9-1.9,1.3-3.2,1.3-2.5,0-4.4-1.8-4.4-4.3Z"/>
    <path class="st0" d="M74.8,117.4v8.3h-1.2v-3.7h-4.8v3.7h-1.2v-8.3h1.2v3.6h4.8v-3.6h1.2Z"/>
    <path class="st0" d="M85.3,125.7v-6.1l-3,5.1h-.6l-3-5v6.1h-1.1v-8.3h1l3.5,5.9,3.4-5.9h1v8.3h-1.1Z"/>
    <path class="st0" d="M94.6,123.6h-4.4l-.9,2.1h-1.2l3.8-8.3h1.2l3.8,8.3h-1.2l-.9-2.1h0ZM94.2,122.7l-1.8-4.1-1.8,4.1h3.6Z"/>
    <path class="st0" d="M101,122l-1.5,1.6v2.2h-1.2v-8.3h1.2v4.7l4.5-4.7h1.4l-3.6,3.8,3.8,4.6h-1.4l-3.2-3.7h0Z"/>
    <path class="st0" d="M107.2,117.4h1.2v8.3h-1.2v-8.3Z"/>
    <path class="st0" d="M118.3,117.4v8.3h-1l-5-6.2v6.2h-1.2v-8.3h1l5,6.2v-6.2h1.2Z"/>
    <path class="st0" d="M126.9,121.5h1.1v3.3c-.8.7-2,1.1-3.2,1.1-2.6,0-4.4-1.8-4.4-4.3s1.9-4.3,4.5-4.3,2.4.4,3.2,1.3l-.7.7c-.7-.7-1.5-1-2.4-1-1.9,0-3.3,1.3-3.3,3.2s1.4,3.2,3.3,3.2,1.4-.2,2-.5c0,0,0-2.7,0-2.7Z"/>
    <path class="st0" d="M133.4,124.8l.4-.9c.6.6,1.7,1,2.8,1s2.1-.6,2.1-1.3c0-2-5.1-.8-5.1-3.8s1-2.4,3.2-2.4,2,.3,2.7.7l-.4.9c-.7-.5-1.6-.7-2.3-.7-1.4,0-2,.6-2,1.3,0,2,5.1.8,5.1,3.8s-1,2.4-3.2,2.4-2.5-.4-3.2-1.1h0Z"/>
    <path class="st0" d="M147.9,124.7v1h-6.1v-8.3h5.9v1h-4.7v2.6h4.2v1h-4.2v2.7h4.9Z"/>
    <path class="st0" d="M155.7,125.7l-1.8-2.6c-.2,0-.4,0-.5,0h-2.1v2.5h-1.2v-8.3h3.3c2.2,0,3.5,1.1,3.5,2.9s-.7,2.2-1.8,2.6l2,2.8h-1.3ZM155.7,120.3c0-1.2-.8-1.9-2.3-1.9h-2v3.8h2c1.5,0,2.3-.7,2.3-1.9h0Z"/>
    <path class="st0" d="M166.4,117.4l-3.7,8.3h-1.2l-3.7-8.3h1.3l3,6.9,3-6.9h1.2,0Z"/>
    <path class="st0" d="M167.7,117.4h1.2v8.3h-1.2v-8.3Z"/>
    <path class="st0" d="M171.1,121.5c0-2.5,1.9-4.3,4.4-4.3s2.4.4,3.2,1.3l-.8.8c-.6-.7-1.4-1-2.4-1-1.9,0-3.3,1.4-3.3,3.2s1.4,3.2,3.3,3.2,1.7-.3,2.4-1l.8.8c-.8.9-1.9,1.3-3.2,1.3-2.5,0-4.4-1.8-4.4-4.3Z"/>
    <path class="st0" d="M186.7,124.7v1h-6.1v-8.3h5.9v1h-4.7v2.6h4.2v1h-4.2v2.7h4.9Z"/>
    <path class="st0" d="M193.6,118.4v2.9h4.2v1h-4.2v3.4h-1.2v-8.3h5.9v1s-4.7,0-4.7,0Z"/>
    <path class="st0" d="M199.5,121.5c0-2.4,1.9-4.3,4.4-4.3s4.4,1.8,4.4,4.3-1.9,4.3-4.4,4.3-4.4-1.8-4.4-4.3ZM207.2,121.5c0-1.8-1.4-3.2-3.2-3.2s-3.3,1.4-3.3,3.2,1.4,3.2,3.3,3.2,3.2-1.4,3.2-3.2Z"/>
    <path class="st0" d="M216.1,125.7l-1.8-2.6c-.2,0-.4,0-.5,0h-2.1v2.5h-1.2v-8.3h3.3c2.2,0,3.5,1.1,3.5,2.9s-.7,2.2-1.8,2.6l2,2.8h-1.3ZM216.1,120.3c0-1.2-.8-1.9-2.3-1.9h-2v3.8h2c1.5,0,2.3-.7,2.3-1.9h0Z"/>
    <path class="st0" d="M229.1,124.7v1h-6.1v-8.3h5.9v1h-4.7v2.6h4.2v1h-4.2v2.7h4.9Z"/>
    <path class="st0" d="M231.3,117.4h1.2v7.3h4.5v1h-5.7v-8.3Z"/>
    <path class="st0" d="M238.7,117.4h1.2v8.3h-1.2v-8.3Z"/>
    <path class="st0" d="M244.3,118.4h-2.9v-1h6.9v1h-2.9v7.3h-1.2v-7.3Z"/>
    <path class="st0" d="M256,124.7v1h-6.1v-8.3h5.9v1h-4.7v2.6h4.2v1h-4.2v2.7h4.9Z"/>
    <path class="st0" d="M257.5,124.8l.4-.9c.6.6,1.7,1,2.8,1s2.1-.6,2.1-1.3c0-2-5.1-.8-5.1-3.8s1-2.4,3.2-2.4,2,.3,2.7.7l-.4.9c-.7-.5-1.5-.7-2.3-.7-1.4,0-2,.6-2,1.3,0,2,5.1.8,5.1,3.8s-1,2.4-3.2,2.4-2.5-.4-3.2-1.1h0Z"/>
  </g>
</svg>